<svg width="70" height="58" viewBox="0 0 70 58" fill="none" xmlns="http://www.w3.org/2000/svg">
<path d="M68.4237 26.005L40.024 1.66246C39.4349 1.15856 38.7138 0.833989 37.9459 0.727175C37.1781 0.620361 36.3957 0.735764 35.6914 1.05974C34.9871 1.38371 34.3904 1.90268 33.9719 2.55522C33.5534 3.20777 33.3305 3.96656 33.3298 4.74179V16.9131H4.93014C3.85413 16.9131 2.82219 17.3405 2.06134 18.1014C1.30049 18.8622 0.873047 19.8942 0.873047 20.9702V37.1986C0.873047 38.2746 1.30049 39.3065 2.06134 40.0674C2.82219 40.8282 3.85413 41.2557 4.93014 41.2557H33.3298V53.427C33.3305 54.2022 33.5534 54.961 33.9719 55.6135C34.3904 56.2661 34.9871 56.785 35.6914 57.109C36.3957 57.433 37.1781 57.5484 37.9459 57.4416C38.7138 57.3348 39.4349 57.0102 40.024 56.5063L68.4237 32.1637C68.8677 31.7828 69.2241 31.3105 69.4684 30.7789C69.7128 30.2474 69.8393 29.6694 69.8393 29.0844C69.8393 28.4994 69.7128 27.9213 69.4684 27.3898C69.2241 26.8583 68.8677 26.3859 68.4237 26.005Z" fill="url(#paint0_linear_209_1118)"/>
<defs>
<linearGradient id="paint0_linear_209_1118" x1="0.873047" y1="0.688477" x2="79.8426" y2="25.0388" gradientUnits="userSpaceOnUse">
<stop stop-color="#FCC232"/>
<stop offset="1" stop-color="#FF4D00"/>
</linearGradient>
</defs>
</svg>
