<svg width="18" height="18" viewBox="0 0 18 18" fill="none" xmlns="http://www.w3.org/2000/svg">
<ellipse cx="9.62885" cy="6" rx="2.74994" ry="3" fill="white"/>
<path fill-rule="evenodd" clip-rule="evenodd" d="M14.6907 13.0337C14.7385 13.1352 14.7077 13.2555 14.6184 13.3234C13.2334 14.3755 11.5058 15 9.6324 15C7.75899 15 6.03142 14.3756 4.6465 13.3234C4.5572 13.2556 4.52636 13.1352 4.57414 13.0338C5.41424 11.2499 7.3628 10 9.63246 10C11.9021 10 13.8506 11.2498 14.6907 13.0337Z" fill="white"/>
<path d="M13.8331 1H15.7507C16.3563 1 16.6592 1 16.8913 1.116C17.1044 1.22247 17.2772 1.39524 17.3837 1.60832C17.4997 1.84048 17.4997 2.14332 17.4997 2.749V5M13.8331 17H15.7507C16.3563 17 16.6592 17 16.8913 16.884C17.1044 16.7775 17.2772 16.6048 17.3837 16.3917C17.4997 16.1595 17.4997 15.8567 17.4997 15.251V13M4.66659 1H2.749C2.14332 1 1.84048 1 1.60832 1.116C1.39524 1.22247 1.22247 1.39524 1.116 1.60832C1 1.84048 1 2.14332 1 2.749V5M4.66659 17H2.749C2.14332 17 1.84048 17 1.60832 16.884C1.39524 16.7775 1.22247 16.6048 1.116 16.3917C1 16.1595 1 15.8567 1 15.251V13" stroke="white" stroke-linecap="round"/>
</svg>
