<svg width="10" height="11" viewBox="0 0 10 11" fill="none" xmlns="http://www.w3.org/2000/svg">
<g clip-path="url(#clip0_138_3766)">
<path d="M5 10.15C7.76142 10.15 10 7.87784 10 5.075C10 2.27215 7.76142 0 5 0C2.23858 0 0 2.27215 0 5.075C0 7.87784 2.23858 10.15 5 10.15Z" fill="#F4B731"/>
<path fill-rule="evenodd" clip-rule="evenodd" d="M2.89906 2.53748H4.94656C6.19187 2.53748 7.13594 3.20864 7.48719 4.18495H8.125V4.77523H7.62156C7.63125 4.86849 7.63625 4.96364 7.63625 5.06007V5.07466C7.63625 5.18314 7.63 5.29035 7.6175 5.39502H8.125V5.98499H7.475C7.11469 6.94797 6.17812 7.61248 4.94688 7.61248H2.89906V5.98499H2.1875V5.39502H2.89906V4.77523H2.1875V4.18526H2.89906V2.53748ZM3.47125 5.98499V7.08309H4.94625C5.85687 7.08309 6.53312 6.64315 6.84781 5.98499H3.47125ZM7.02313 5.39502H3.47125V4.77523H7.02437C7.03719 4.87261 7.04406 4.97252 7.04406 5.07466V5.08893C7.04406 5.19329 7.03688 5.2951 7.02313 5.3947V5.39502ZM4.94688 3.06559C5.86125 3.06559 6.53969 3.51727 6.8525 4.18463H3.47125V3.06591H4.94625L4.94688 3.06559Z" fill="white"/>
</g>
<defs>
<clipPath id="clip0_138_3766">
<rect width="10" height="10.15" fill="white"/>
</clipPath>
</defs>
</svg>
