<svg width="16" height="17" viewBox="0 0 16 17" fill="none" xmlns="http://www.w3.org/2000/svg">
<path fill-rule="evenodd" clip-rule="evenodd" d="M16 3.66602H0V6.33282C0.98184 6.33282 1.77778 7.12875 1.77778 8.11059V11C1.77778 13.8284 1.77778 15.2427 2.65646 16.1213C3.53514 17 4.94935 17 7.77777 17H8.22222C11.0506 17 12.4649 17 13.3435 16.1213C14.2222 15.2427 14.2222 13.8284 14.2222 11V8.11059C14.2222 7.12875 15.0182 6.33282 16 6.33282V3.66602ZM6.77344 8.10973C6.77344 7.55745 6.32572 7.10973 5.77344 7.10973C5.22115 7.10973 4.77344 7.55745 4.77344 8.10973V12.5544C4.77344 13.1067 5.22115 13.5544 5.77344 13.5544C6.32572 13.5544 6.77344 13.1067 6.77344 12.5544V8.10973ZM11.2179 8.10973C11.2179 7.55745 10.7702 7.10973 10.2179 7.10973C9.6656 7.10973 9.21788 7.55745 9.21788 8.10973V12.5544C9.21788 13.1067 9.6656 13.5544 10.2179 13.5544C10.7702 13.5544 11.2179 13.1067 11.2179 12.5544V8.10973Z" fill="white"/>
<path d="M6.27846 1.32943C6.37975 1.23492 6.60294 1.15141 6.91342 1.09185C7.2239 1.03228 7.60431 1 7.99566 1C8.38701 1 8.76742 1.03228 9.0779 1.09185C9.38838 1.15141 9.61157 1.23492 9.71286 1.32943" stroke="white" stroke-width="2" stroke-linecap="round"/>
</svg>
