<svg width="12" height="13" viewBox="0 0 12 13" fill="none" xmlns="http://www.w3.org/2000/svg">
<path fill-rule="evenodd" clip-rule="evenodd" d="M12 3.00024H0V5.00024C0.73638 5.00024 1.33333 5.5972 1.33333 6.33358V8.33358C1.33333 9.88808 1.33333 10.6653 1.61441 11.2681C1.91249 11.9073 2.42625 12.4211 3.06548 12.7192C3.66825 13.0002 4.4455 13.0002 6 13.0002C7.5545 13.0002 8.33175 13.0002 8.93452 12.7192C9.57375 12.4211 10.0875 11.9073 10.3856 11.2681C10.6667 10.6653 10.6667 9.88808 10.6667 8.33358V6.33358C10.6667 5.5972 11.2636 5.00024 12 5.00024V3.00024ZM5.33333 6.33358C5.33333 5.78129 4.88562 5.33358 4.33333 5.33358C3.78105 5.33358 3.33333 5.78129 3.33333 6.33358V9.66691C3.33333 10.2192 3.78105 10.6669 4.33333 10.6669C4.88562 10.6669 5.33333 10.2192 5.33333 9.66691V6.33358ZM8.66667 6.33358C8.66667 5.78129 8.21895 5.33358 7.66667 5.33358C7.11438 5.33358 6.66667 5.78129 6.66667 6.33358V9.66691C6.66667 10.2192 7.11438 10.6669 7.66667 10.6669C8.21895 10.6669 8.66667 10.2192 8.66667 9.66691V6.33358Z" fill="white"/>
<path d="M4.7108 1.2473C4.78676 1.17643 4.95416 1.1138 5.18702 1.06913C5.41987 1.02446 5.70519 1.00024 5.9987 1.00024C6.29221 1.00024 6.57752 1.02446 6.81038 1.06913C7.04324 1.1138 7.21063 1.17643 7.2866 1.2473" stroke="white" stroke-width="2" stroke-linecap="round"/>
</svg>
