<svg width="16" height="16" viewBox="0 0 16 16" fill="none" xmlns="http://www.w3.org/2000/svg">
<path d="M7.3986 2.53571H3.60761C2.35138 2.53571 1.33301 3.55405 1.33301 4.81024V12.3921C1.33301 13.6482 2.35138 14.6666 3.60761 14.6666H11.1896C12.4458 14.6666 13.4642 13.6482 13.4642 12.3921L13.4642 8.60115M5.124 10.8756L7.88258 10.3198C8.02902 10.2903 8.16348 10.2182 8.26909 10.1125L14.4444 3.93403C14.7405 3.6378 14.7403 3.15763 14.444 2.86165L13.1358 1.55501C12.8396 1.25916 12.3597 1.25936 12.0637 1.55546L5.88774 7.73462C5.78234 7.84008 5.71037 7.97426 5.68084 8.1204L5.124 10.8756Z" stroke="white" stroke-linecap="round" stroke-linejoin="round"/>
</svg>
