<svg width="12" height="12" viewBox="0 0 12 12" fill="none" xmlns="http://www.w3.org/2000/svg">
<path d="M5.5492 1.90209H2.70595C1.76378 1.90209 1 2.66584 1 3.60798V9.29435C1 10.2365 1.76378 11.0002 2.70595 11.0002H8.39244C9.33461 11.0002 10.0984 10.2365 10.0984 9.29435L10.0984 6.45117M3.84325 8.15703L5.91218 7.74017C6.02201 7.71804 6.12286 7.66396 6.20206 7.58472L10.8336 2.95083C11.0556 2.72866 11.0555 2.36853 10.8332 2.14654L9.8521 1.16657C9.62995 0.944672 9.26999 0.944823 9.04803 1.1669L4.41605 5.80127C4.337 5.88036 4.28302 5.981 4.26087 6.09061L3.84325 8.15703Z" stroke="white" stroke-linecap="round" stroke-linejoin="round"/>
</svg>
