<svg width="120" height="120" viewBox="0 0 120 120" fill="none" xmlns="http://www.w3.org/2000/svg">
<path fill-rule="evenodd" clip-rule="evenodd" d="M86.5677 79.4466C92.7425 74.6721 97.721 69.2368 100.94 65.3286C102.881 62.9722 103.851 61.794 103.851 60C103.851 58.206 102.881 57.0278 100.94 54.6714C93.8395 46.0507 78.1785 30 59.9998 30C53.6162 30 47.5431 31.9793 42.0421 34.921L53.5667 46.4456C55.5163 45.5187 57.6975 45 59.9998 45C68.2841 45 74.9998 51.7157 74.9998 60C74.9998 62.3023 74.4811 64.4835 73.5542 66.4331L86.5677 79.4466ZM50.93 48.0516C47.3264 50.7913 44.9998 55.1239 44.9998 60C44.9998 68.2843 51.7155 75 59.9998 75C64.8759 75 69.2085 72.6734 71.9482 69.0698L84.1286 81.2502C77.1555 86.1717 68.8779 90 59.9998 90C41.8211 90 26.1601 73.9493 19.0597 65.3286C17.1188 62.9722 16.1484 61.794 16.1484 60C16.1484 58.206 17.1188 57.0278 19.0597 54.6714C23.2517 49.5819 30.4276 41.9025 39.3438 36.4653L50.93 48.0516Z" fill="#FF4D00"/>
<path d="M20 15L100 95" stroke="#FF4D00" stroke-width="2"/>
</svg>
