<svg width="41" height="72" viewBox="0 0 41 72" fill="none" xmlns="http://www.w3.org/2000/svg">
<path d="M-162.441 -20.8629L238.351 324.388" stroke="#FCC232" stroke-width="1.86877"/>
<path d="M-160.424 -23.0992L240.369 322.152" stroke="white" stroke-width="1.86877"/>
<path d="M-158.406 -25.3336L242.386 319.918" stroke="#FCC232" stroke-width="1.86877"/>
<path d="M-156.388 -27.5674L244.404 317.684" stroke="#FFDF6B" stroke-width="1.86877"/>
<path d="M-154.373 -29.8028L246.419 315.448" stroke="#FFC46B" stroke-width="1.86877"/>
<path d="M-152.357 -32.0391L248.435 313.212" stroke="#FF986B" stroke-width="1.86877"/>
<path d="M-150.339 -34.2755L250.453 310.976" stroke="#FF746B" stroke-width="1.86877"/>
<path d="M-148.323 -36.5079L252.469 308.743" stroke="#FF6B74" stroke-width="1.86877"/>
<path d="M-146.306 -38.7447L254.486 306.507" stroke="#FF6BB2" stroke-width="1.86877"/>
<path d="M-144.288 -40.9788L256.504 304.272" stroke="#EC70FF" stroke-width="1.86877"/>
<path d="M-142.27 -43.2134L258.522 302.038" stroke="#E16BFF" stroke-width="1.86877"/>
<path d="M-140.255 -45.4505L260.537 299.801" stroke="#AC6BFF" stroke-width="1.86877"/>
<path d="M-138.239 -47.6851L262.553 297.566" stroke="#916BFF" stroke-width="1.86877"/>
<path d="M-136.221 -49.9197L264.571 295.331" stroke="#6E6BFF" stroke-width="1.86877"/>
<path d="M-134.205 -52.1563L266.587 293.095" stroke="#2463D6" stroke-width="1.86877"/>
<path d="M-132.188 -54.3904L268.604 290.861" stroke="#4B84EB" stroke-width="1.86877"/>
<path d="M-130.172 -56.6255L270.62 288.626" stroke="#6BB8FF" stroke-width="1.86877"/>
<path d="M-128.155 -58.8619L272.637 286.389" stroke="#6BCAFF" stroke-width="1.86877"/>
<path d="M-126.139 -61.095L274.653 284.156" stroke="#6BF6FF" stroke-width="1.86877"/>
<path d="M-124.121 -63.3331L276.671 281.918" stroke="#43BA7F" stroke-width="1.86877"/>
<path d="M-122.106 -65.5687L278.686 279.683" stroke="#FCC232" stroke-width="1.86877"/>
</svg>
