<svg width="10" height="11" viewBox="0 0 10 11" fill="none" xmlns="http://www.w3.org/2000/svg">
<g clip-path="url(#clip0_138_3777)">
<path d="M5 10.15C7.76142 10.15 10 7.87784 10 5.075C10 2.27215 7.76142 0 5 0C2.23858 0 0 2.27215 0 5.075C0 7.87784 2.23858 10.15 5 10.15Z" fill="#2A5ADA"/>
<path d="M5 1.90308L4.43781 2.23771L2.90625 3.15438L2.34375 3.48901V6.66089L2.90594 6.99552L4.45188 7.91219L5.01406 8.24683L5.57625 7.91219L7.09406 6.99552L7.65625 6.66089V3.48901L7.09406 3.15438L5.56219 2.23771L5 1.90308ZM3.46812 5.99162V4.15828L5 3.24161L6.53188 4.15828V5.99162L5 6.9083L3.46812 5.99162Z" fill="white"/>
</g>
<defs>
<clipPath id="clip0_138_3777">
<rect width="10" height="10.15" fill="white"/>
</clipPath>
</defs>
</svg>
