<svg width="20" height="20" viewBox="0 0 20 20" fill="none" xmlns="http://www.w3.org/2000/svg">
<path fill-rule="evenodd" clip-rule="evenodd" d="M11.7002 3.12067C11.1666 2.9343 10.5943 2.83337 10.0005 2.83337C7.37362 2.83337 5.16684 4.80854 4.87675 7.41934L4.66691 9.30785C4.56721 10.2052 4.27514 11.0705 3.81062 11.8447L3.32892 12.6475L3.32092 12.6608L3.32091 12.6608C3.17636 12.9018 3.05649 13.1015 2.97045 13.2663C2.88421 13.4314 2.80632 13.6076 2.78045 13.7973C2.68923 14.4658 3.05566 15.113 3.67589 15.3788C3.85181 15.4542 4.04301 15.4781 4.22897 15.4891C4.41451 15.5 4.64749 15.5 4.92846 15.5H4.94401H15.057H15.0725C15.3535 15.5 15.5865 15.5 15.772 15.4891C15.958 15.4781 16.1492 15.4542 16.3251 15.3788C16.9453 15.113 17.3117 14.4658 17.2205 13.7973C17.1947 13.6076 17.1168 13.4314 17.0305 13.2663C16.9445 13.1015 16.8246 12.9017 16.68 12.6608L16.672 12.6475L16.1904 11.8447C15.7263 11.0712 15.4343 10.2068 15.3343 9.31035C15.0226 9.41497 14.6921 9.47883 14.3492 9.4956C14.4727 10.5082 14.8077 11.4839 15.3329 12.3592L15.8146 13.162C15.9691 13.4196 16.0735 13.5939 16.1441 13.7292C16.2162 13.8672 16.2278 13.9187 16.2297 13.9325C16.2601 14.1553 16.138 14.371 15.9312 14.4596C15.9185 14.4651 15.8683 14.4816 15.7129 14.4908C15.5605 14.4998 15.3574 14.5 15.057 14.5H4.94401C4.64358 14.5 4.44045 14.4998 4.28806 14.4908C4.13268 14.4816 4.08246 14.4651 4.06975 14.4596C3.86301 14.371 3.74086 14.1553 3.77127 13.9325C3.77314 13.9187 3.78479 13.8672 3.85685 13.7292C3.92752 13.5939 4.03184 13.4196 4.18642 13.162L4.66811 12.3592C5.20662 11.4616 5.54521 10.4585 5.6608 9.41829L5.87063 7.52977C6.10445 5.42541 7.88317 3.83337 10.0005 3.83337C10.3498 3.83337 10.6899 3.87671 11.0154 3.95853C11.2015 3.64624 11.4328 3.36396 11.7002 3.12067ZM13.5758 4.27464C13.2512 4.39786 12.975 4.6196 12.7839 4.90335C13.5088 5.55728 14.0045 6.46567 14.1269 7.49956C14.1403 7.49988 14.1537 7.50004 14.1671 7.50004C14.5117 7.50004 14.8319 7.39546 15.0976 7.21631C14.9231 6.06054 14.3708 5.03969 13.5758 4.27464Z" fill="white"/>
<path d="M7.58519 15.3382C7.72762 15.9584 8.04149 16.5064 8.4781 16.8973C8.91471 17.2881 9.44966 17.5 10 17.5C10.5503 17.5 11.0853 17.2881 11.5219 16.8973C11.9585 16.5064 12.2724 15.9584 12.4148 15.3382" stroke="white" stroke-linecap="round"/>
<circle cx="14.1667" cy="5.83329" r="1.66667" fill="white"/>
</svg>
