<svg width="16" height="16" viewBox="0 0 16 16" fill="none" xmlns="http://www.w3.org/2000/svg">
<path fill-rule="evenodd" clip-rule="evenodd" d="M14 7.99998V8V8.00002C14 9.86377 14 10.7957 13.6955 11.5307C13.2895 12.5108 12.5108 13.2895 11.5307 13.6955C10.7957 14 9.86377 14 8.00002 14H8H6H5.99999C4.11438 14 3.17157 14 2.58579 13.4142C2 12.8284 2 11.8856 2 10V8C2 6.13623 2 5.20435 2.30448 4.46927C2.71046 3.48915 3.48915 2.71046 4.46927 2.30448C5.20435 2 6.13623 2 8 2C9.86377 2 10.7956 2 11.5307 2.30448C12.5108 2.71046 13.2895 3.48915 13.6955 4.46927C14 5.20435 14 6.13623 14 7.99998ZM8 5.0001C8.55229 5.0001 9 5.44781 9 6.0001V6.99977H10C10.5523 6.99977 11 7.44749 11 7.99977C11 8.55206 10.5523 8.99977 10 8.99977H9V10.0001C9 10.5524 8.55228 11.0001 8 11.0001C7.44771 11.0001 7 10.5524 7 10.0001V8.99977H6C5.44772 8.99977 5 8.55206 5 7.99977C5 7.44749 5.44772 6.99977 6 6.99977H7V6.0001C7 5.44781 7.44772 5.0001 8 5.0001Z" fill="white"/>
</svg>
