<svg width="15" height="16" viewBox="0 0 15 16" fill="none" xmlns="http://www.w3.org/2000/svg">
<g clip-path="url(#clip0_140_1384)">
<path d="M7.5 15.75C11.6421 15.75 15 12.3921 15 8.25C15 4.10786 11.6421 0.75 7.5 0.75C3.35786 0.75 0 4.10786 0 8.25C0 12.3921 3.35786 15.75 7.5 15.75Z" fill="#26A17B"/>
<path fill-rule="evenodd" clip-rule="evenodd" d="M8.40094 8.89841V8.89747C8.34937 8.90122 8.08359 8.91716 7.49062 8.91716C7.01719 8.91716 6.68391 8.9031 6.56672 8.89747V8.89888C4.74422 8.81872 3.38391 8.50138 3.38391 8.12169C3.38391 7.74247 4.74422 7.42513 6.56672 7.34356V8.58294C6.68578 8.59138 7.02703 8.61153 7.49859 8.61153C8.06437 8.61153 8.34797 8.5881 8.40094 8.58341V7.3445C10.2197 7.4256 11.5767 7.74294 11.5767 8.12169C11.5767 8.50138 10.2197 8.81778 8.40094 8.89841ZM8.40094 7.2156V6.10653H10.9387V4.41528H4.02891V6.10653H6.56672V7.21513C4.50422 7.30981 2.95312 7.71856 2.95312 8.20794C2.95312 8.69731 4.50422 9.1056 6.56672 9.20075V12.7548H8.40094V9.19981C10.4602 9.10513 12.0075 8.69685 12.0075 8.20794C12.0075 7.71903 10.4602 7.31075 8.40094 7.2156Z" fill="white"/>
</g>
<defs>
<clipPath id="clip0_140_1384">
<rect width="15" height="15" fill="white" transform="translate(0 0.75)"/>
</clipPath>
</defs>
</svg>
