<svg width="11" height="18" viewBox="0 0 11 18" fill="none" xmlns="http://www.w3.org/2000/svg">
<path d="M6.79221 0.412098C7.13664 0.145678 7.63184 0.208916 7.89826 0.553347C11.698 5.46573 11.6872 11.8921 7.89927 16.8108C7.63358 17.1557 7.13853 17.22 6.79353 16.9544C6.44853 16.6887 6.38424 16.1936 6.64993 15.8486C10.0027 11.495 10.0096 5.86027 6.65096 1.51815C6.38454 1.17372 6.44778 0.678522 6.79221 0.412098Z" fill="white"/>
<path d="M3.64542 2.44594C3.98963 2.17923 4.48487 2.24205 4.75159 2.58625C7.60189 6.2647 7.59031 11.0928 4.75299 14.7765C4.48727 15.1215 3.99221 15.1857 3.64723 14.92C3.30226 14.6543 3.238 14.1593 3.50371 13.8143C5.90645 10.6948 5.91263 6.65912 3.50511 3.55211C3.2384 3.20791 3.30122 2.71266 3.64542 2.44594Z" fill="white"/>
<path d="M2.13306 5.38632C1.86748 5.04124 1.37244 4.9768 1.02736 5.24238C0.682287 5.50796 0.617845 6.003 0.883428 6.34808C1.97192 7.76239 1.97851 9.57877 0.88379 10.999C0.617948 11.3438 0.682018 11.8389 1.0269 12.1048C1.37177 12.3706 1.86686 12.3065 2.1327 11.9617C3.6669 9.97134 3.65572 7.36474 2.13306 5.38632Z" fill="white"/>
</svg>
