<svg width="10" height="11" viewBox="0 0 10 11" fill="none" xmlns="http://www.w3.org/2000/svg">
<g clip-path="url(#clip0_138_3733)">
<mask id="mask0_138_3733" style="mask-type:alpha" maskUnits="userSpaceOnUse" x="0" y="0" width="10" height="11">
<path d="M0 0.00012207H10V10.154H0V0.00012207Z" fill="white"/>
</mask>
<g mask="url(#mask0_138_3733)">
<path fill-rule="evenodd" clip-rule="evenodd" d="M5 0.00012207C7.76148 0.00012207 10 2.27308 10 5.07704C10 7.88078 7.76148 10.154 5 10.154C2.23852 10.154 0 7.88078 0 5.07704C0 2.27308 2.23852 0.00012207 5 0.00012207Z" fill="#2775CA"/>
</g>
<path fill-rule="evenodd" clip-rule="evenodd" d="M4.06272 8.60672C4.06272 8.72614 3.97061 8.79399 3.85686 8.75793C2.3451 8.26824 1.24902 6.82887 1.24902 5.13053C1.24902 3.43224 2.3451 1.99282 3.85686 1.50312C3.97061 1.4673 4.06272 1.53491 4.06272 1.65434V1.94914C4.06272 2.02864 4.00204 2.12222 3.92743 2.14812C2.73135 2.59409 1.87453 3.7608 1.87453 5.12851C1.87453 6.49622 2.73135 7.66316 3.92743 8.10889C4.00204 8.13682 4.06272 8.22832 4.06272 8.3081V8.60672Z" fill="white"/>
<path fill-rule="evenodd" clip-rule="evenodd" d="M5.31164 7.50969C5.31164 7.59738 5.24107 7.66903 5.15482 7.66903H4.843C4.75675 7.66903 4.68618 7.59738 4.68618 7.50969V7.00805C4.0038 6.91453 3.67056 6.52621 3.58033 5.99867C3.56459 5.90896 3.63516 5.82738 3.72539 5.82738H4.08226C4.15675 5.82738 4.21954 5.88121 4.23522 5.95672C4.30192 6.27132 4.48033 6.51224 5.02732 6.51224C5.43124 6.51224 5.7176 6.28326 5.7176 5.94097C5.7176 5.5984 5.54891 5.46905 4.95675 5.36942C4.08226 5.24999 3.66857 4.98115 3.66857 4.28434C3.66857 3.74682 4.06863 3.32878 4.68817 3.23913V2.74736C4.68817 2.65972 4.7588 2.58801 4.84499 2.58801H5.15681C5.24306 2.58801 5.31363 2.65972 5.31363 2.74736V3.25309C5.81755 3.34482 6.13715 3.6353 6.24113 4.11709C6.26067 4.20882 6.1901 4.29426 6.098 4.29426H5.76851C5.69794 4.29426 5.63914 4.24644 5.6176 4.1768C5.52937 3.87034 5.31363 3.73897 4.93908 3.73897C4.52539 3.73897 4.31164 3.94199 4.31164 4.22665C4.31164 4.52728 4.43329 4.67849 5.06863 4.77224C5.92732 4.89167 6.37056 5.14049 6.37056 5.88328C6.37056 6.44665 5.95874 6.90259 5.31363 7.00805V7.50969H5.31164Z" fill="white"/>
<path fill-rule="evenodd" clip-rule="evenodd" d="M6.14335 8.75805C6.02972 8.79411 5.9375 8.72626 5.9375 8.60684V8.31227C5.9375 8.22463 5.99045 8.14305 6.07278 8.11305C7.26886 7.66709 8.12568 6.50038 8.12568 5.13267C8.12568 3.76496 7.26886 2.59825 6.07278 2.15229C5.9983 2.12436 5.9375 2.03286 5.9375 1.95307V1.6585C5.9375 1.53907 6.02972 1.46944 6.14335 1.50705C7.65511 1.99704 8.75119 3.4364 8.75119 5.13469C8.74932 6.82894 7.65511 8.26634 6.14335 8.75805Z" fill="white"/>
</g>
<defs>
<clipPath id="clip0_138_3733">
<rect width="10" height="10.1538" fill="white"/>
</clipPath>
</defs>
</svg>
