<svg width="10" height="11" viewBox="0 0 10 11" fill="none" xmlns="http://www.w3.org/2000/svg">
<g clip-path="url(#clip0_138_3750)">
<path d="M5 10.15C7.76142 10.15 10 7.87784 10 5.075C10 2.27215 7.76142 0 5 0C2.23858 0 0 2.27215 0 5.075C0 7.87784 2.23858 10.15 5 10.15Z" fill="#26A17B"/>
<path fill-rule="evenodd" clip-rule="evenodd" d="M5.60063 5.51381V5.51317C5.56625 5.51571 5.38906 5.52649 4.99375 5.52649C4.67812 5.52649 4.45594 5.51698 4.37781 5.51317V5.51412C3.16281 5.45988 2.25594 5.24515 2.25594 4.98823C2.25594 4.73162 3.16281 4.51689 4.37781 4.46169V5.30034C4.45719 5.30605 4.68469 5.31969 4.99906 5.31969C5.37625 5.31969 5.56531 5.30383 5.60063 5.30066V4.46233C6.81313 4.5172 7.71781 4.73194 7.71781 4.98823C7.71781 5.24515 6.81313 5.45925 5.60063 5.51381ZM5.60063 4.3751V3.62464H7.2925V2.48022H2.68594V3.62464H4.37781V4.37479C3.00281 4.43886 1.96875 4.71544 1.96875 5.04659C1.96875 5.37773 3.00281 5.654 4.37781 5.71839V8.12331H5.60063V5.71776C6.97344 5.65369 8.005 5.37741 8.005 5.04659C8.005 4.71576 6.97344 4.43949 5.60063 4.3751Z" fill="white"/>
</g>
<defs>
<clipPath id="clip0_138_3750">
<rect width="10" height="10.15" fill="white"/>
</clipPath>
</defs>
</svg>
